<?xml version="1.0" standalone="no"?>
<!DOCTYPE svg PUBLIC "-//W3C//DTD SVG 20010904//EN"
 "http://www.w3.org/TR/2001/REC-SVG-20010904/DTD/svg10.dtd">
<svg version="1.0" xmlns="http://www.w3.org/2000/svg"
 width="473.000000pt" height="473.000000pt" viewBox="0 0 473.000000 473.000000"
 preserveAspectRatio="xMidYMid meet">

<g transform="translate(0.000000,473.000000) scale(0.100000,-0.100000)"
fill="#000000" stroke="none">
<path d="M637 4273 c-2 -5 -5 -912 -6 -2016 -3 -1948 -2 -2009 16 -2005 17 3
20 37 49 443 18 242 47 668 65 947 l34 507 22 -6 c33 -8 210 15 295 38 178 49
379 179 497 321 178 216 259 456 248 733 -22 534 -410 960 -941 1034 -89 13
-273 15 -279 4z m409 -344 c266 -110 469 -356 529 -640 19 -92 19 -260 -1
-357 -28 -140 -103 -289 -205 -411 -89 -105 -252 -220 -379 -267 -61 -22 -183
-54 -188 -49 -3 2 1 84 7 182 6 98 29 471 51 828 22 358 42 674 46 703 l6 53
31 -6 c18 -4 64 -20 103 -36z"/>
<path d="M2713 4001 c-180 -150 -312 -329 -359 -486 -23 -77 -23 -239 1 -350
15 -74 34 -132 160 -496 83 -238 111 -456 102 -777 -7 -248 -26 -345 -92 -469
-51 -97 -135 -215 -245 -341 -39 -46 -70 -85 -68 -87 6 -6 145 85 213 139 194
156 297 297 349 478 51 177 75 466 56 668 -23 245 -54 355 -193 690 -164 392
-171 500 -53 747 47 97 78 149 183 310 23 34 11 28 -54 -26z"/>
<path d="M3720 2978 c0 -144 -1 -150 -18 -135 -50 46 -151 60 -220 32 -198
-83 -205 -428 -10 -509 75 -32 173 -14 230 41 l27 25 6 -36 c7 -35 8 -36 52
-36 37 0 44 3 39 16 -3 9 -6 182 -6 385 l0 369 -50 0 -50 0 0 -152z m-63 -188
c50 -30 63 -66 63 -171 0 -74 -4 -98 -20 -124 -39 -63 -134 -84 -198 -45 -97
59 -96 277 1 339 42 27 111 27 154 1z"/>
<path d="M3047 3072 c-53 -58 28 -137 83 -82 24 24 25 48 4 78 -19 27 -64 29
-87 4z"/>
<path d="M4185 2875 c-55 -19 -121 -93 -140 -158 -58 -195 37 -353 219 -365
73 -4 181 12 192 29 3 5 2 23 -1 40 -5 23 -11 29 -23 24 -32 -13 -136 -22
-175 -15 -68 13 -116 63 -132 138 l-7 32 186 0 186 0 0 53 c0 106 -57 198
-139 226 -45 15 -117 13 -166 -4z m146 -71 c18 -9 38 -32 50 -57 35 -78 37
-77 -120 -77 l-140 0 9 29 c15 53 52 100 90 114 30 11 82 7 111 -9z"/>
<path d="M3040 2620 l0 -260 50 0 50 0 0 260 0 260 -50 0 -50 0 0 -260z"/>
<path d="M885 1683 c-8 -391 -1 -860 14 -943 l7 -45 7 65 c15 158 16 357 2
814 -8 269 -16 491 -19 493 -2 2 -7 -171 -11 -384z"/>
<path d="M1037 2025 c-13 -86 -14 -787 -1 -809 10 -16 13 5 19 105 8 156 -7
776 -18 704z"/>
</g>
</svg>
